<?xml version="1.0" encoding="UTF-8"?>
<svg version="1.1" xmlns="http://www.w3.org/2000/svg" width="512" height="512">
<path d="M0 0 C2.47767117 0.00844633 4.95297899 -0.02021778 7.43041992 -0.05200195 C16.36954904 -0.08906514 24.55607197 0.60994621 33.18544006 3.04530334 C40.16819893 4.99099072 46.24016534 4.91053342 53.2565918 3.00854492 C54.26334961 2.74170898 55.27010742 2.47487305 56.30737305 2.19995117 C58.19931752 1.6589952 60.07730886 1.0683059 61.9440918 0.44604492 C64.06518555 0.20776367 64.06518555 0.20776367 66.3815918 0.13354492 C67.14342773 0.09616211 67.90526367 0.0587793 68.69018555 0.02026367 C71.89523294 0.62572323 72.92766009 1.91121356 74.9440918 4.44604492 C75.67560262 8.58401918 75.56038329 12.70848079 75.52050781 16.90600586 C75.50682685 18.91158736 75.54241538 20.91731036 75.57885742 22.92260742 C75.56260335 33.82367189 73.41021586 43.63611863 65.7565918 51.82104492 C65.08241211 52.5712793 64.40823242 53.32151367 63.71362305 54.09448242 C60.9440918 56.44604492 60.9440918 56.44604492 58.60107422 57.49462891 C54.03864097 59.61612855 51.52300056 61.2537291 49.28076172 65.87182617 C47.80183711 70.09607539 46.70998266 74.41819789 45.6315918 78.75854492 C44.86103728 81.6969048 44.06935488 84.62914329 43.26831055 87.55932617 C43.07969452 88.25889435 42.89107849 88.95846252 42.69674683 89.67922974 C41.16572233 95.15149571 38.96706302 99.67953156 35.9440918 104.44604492 C35.26324549 105.77219368 34.59253502 107.10375449 33.9440918 108.44604492 C34.38237305 108.97069336 34.8206543 109.4953418 35.2722168 110.03588867 C45.17665244 122.13459969 53.80268382 134.8867241 61.6940918 148.38354492 C62.62535889 149.97513428 62.62535889 149.97513428 63.57543945 151.59887695 C67.9440918 159.18198838 67.9440918 159.18198838 67.9440918 161.44604492 C72.35238361 157.71040799 76.43268497 153.91482731 80.3190918 149.63354492 C84.22080593 145.63039975 87.13884045 144.35946893 92.68237305 143.95776367 C95.97086601 143.21373504 96.95712798 142.19014653 98.9440918 139.44604492 C99.99937534 136.27115225 100.64563906 133.03245576 101.3190918 129.75854492 C103.44717601 120.46125896 105.78528309 113.37620245 113.6315918 107.44604492 C120.32002184 103.40774754 127.37512208 103.77842298 134.9440918 104.44604492 C140.83241708 106.21833973 145.18342257 109.82750666 148.5925293 114.90307617 C154.04763019 125.16686427 156.58379708 135.83693151 154.9440918 147.44604492 C152.26104154 155.82373245 147.43157735 160.81690063 140.1940918 165.57104492 C135.29878956 168.92617083 131.92253104 172.74661347 128.29956055 177.41479492 C126.18083952 180.14137455 123.99705241 182.7760709 121.75195312 185.39746094 C120.33716726 187.04993276 118.93626479 188.71331093 117.5378418 190.37963867 C115.96097493 192.2565033 114.36334593 194.09324938 112.7253418 195.91870117 C108.59859018 200.71351299 107.57231938 203.64446371 107.36425781 209.91430664 C106.87558358 212.85884576 106.13803661 213.86465988 104.11987305 216.02416992 C103.4832373 216.7113208 102.84660156 217.39847168 102.19067383 218.10644531 C101.44930176 218.87851318 100.70792969 219.65058105 99.9440918 220.44604492 C99.09572754 221.34250732 98.24736328 222.23896973 97.37329102 223.16259766 C94.9878496 225.66840586 92.57034406 228.14065493 90.13867188 230.6015625 C89.13389406 231.62294284 88.13451779 232.64966515 87.140625 233.68164062 C80.14984357 240.93700651 73.52456139 247.26100273 63.2565918 249.11010742 C55.44808745 249.018026 49.37613608 248.09420193 42.9440918 243.44604492 C40.3190918 240.63354492 40.3190918 240.63354492 38.9440918 238.44604492 C37.9087984 241.6631246 37.9087984 241.6631246 37.9440918 245.44604492 C39.94996916 247.81633918 41.58097868 249.35861157 44.0065918 251.19604492 C44.64274414 251.70844727 45.27889648 252.22084961 45.93432617 252.7487793 C47.91962356 254.33897317 49.928527 255.89447016 51.9440918 257.44604492 C53.13136629 258.37696518 54.31760906 259.30920317 55.50268555 260.24291992 C57.22826634 261.60032144 58.95559945 262.95497047 60.69042969 264.30053711 C64.88389699 267.56283633 68.93275161 270.96305762 72.9440918 274.44604492 C78.09606155 278.91866569 83.36827763 283.18533892 88.7578125 287.36743164 C93.35387465 290.94708795 97.81546359 294.66362007 102.24316406 298.44873047 C106.6001417 302.17189281 111.0351814 305.7904247 115.5065918 309.37573242 C116.3109668 310.05893555 117.1153418 310.74213867 117.9440918 311.44604492 C118.79229492 312.11506836 119.64049805 312.7840918 120.5144043 313.47338867 C124.12931139 317.8961287 125.25965896 322.69407191 126.8190918 328.13354492 C127.38027656 330.02308791 127.94151136 331.91261624 128.5037384 333.80184937 C128.92353356 335.21752353 129.34090691 336.63391758 129.75614929 338.05093384 C131.40018545 343.65696292 133.10465125 349.24280336 134.82928467 354.82453918 C136.21713003 359.31842775 137.59381105 363.81570088 138.96929932 368.31338501 C139.65815244 370.55976767 140.35063071 372.80504204 141.04681396 375.04916382 C142.03641548 378.24560217 143.00956624 381.44664091 143.97924805 384.64916992 C144.27880905 385.60449112 144.57837006 386.55981232 144.88700867 387.54408264 C146.63395959 393.38300527 147.42610885 398.34424087 146.9440918 404.44604492 C146.2634668 405.25041992 145.5828418 406.05479492 144.8815918 406.88354492 C142.6747859 409.80222368 142.69712169 410.3309098 143.0065918 413.82104492 C143.23536011 415.0645874 143.23536011 415.0645874 143.46875 416.33325195 C143.9440918 419.44604492 143.9440918 419.44604492 143.99316406 422.90087891 C144.36048039 428.02418689 144.71411746 432.44322224 148.70840454 436.03063965 C154.35161821 439.81666312 160.60656149 442.43516776 166.8190918 445.13354492 C169.60601175 446.40696631 172.38541175 447.69569509 175.16384888 448.98750305 C176.88796695 449.7821881 178.61847056 450.56320837 180.35592651 451.32829285 C185.74401911 453.7246666 190.21362112 456.05918882 193.7565918 460.94604492 C195.68452573 466.62837653 196.13114325 472.86574456 194.2175293 478.63745117 C191.63796261 483.49248928 188.12904763 486.71772631 182.9440918 488.44604492 C180.47740927 488.56220458 178.03783775 488.62402723 175.5703125 488.63891602 C174.82194626 488.64709351 174.07358002 488.655271 173.30253601 488.66369629 C170.82498974 488.68851391 168.34750074 488.70505909 165.86987305 488.71948242 C165.02206961 488.7248061 164.17426617 488.73012978 163.30077171 488.73561478 C158.81120076 488.76233366 154.32165746 488.78171049 149.83203125 488.79614258 C146.12377177 488.80946849 142.4160643 488.83729749 138.70800781 488.87817383 C134.22408912 488.92759924 129.74067017 488.95227591 125.25649071 488.95936966 C123.55211113 488.96606554 121.84774197 488.98124421 120.14351845 489.00526047 C104.04678828 489.21911312 104.04678828 489.21911312 98.30241394 484.77163696 C94.23888616 480.80602387 91.22820017 477.06909203 90.6081543 471.34448242 C90.52976731 464.27397656 91.00736402 458.75779346 94.0690918 452.33666992 C95.08409486 450.49075293 95.08409486 450.49075293 94.9440918 448.44604492 C94.19353516 447.70040283 93.44297852 446.95476074 92.66967773 446.18652344 C89.94801209 443.44998663 88.24363571 440.93686746 86.3347168 437.59838867 C86.01071396 437.03792847 85.68671112 436.47746826 85.35289001 435.90002441 C84.65644169 434.69388128 83.96341374 433.48575775 83.27352905 432.27584839 C81.41083535 429.01046012 79.52154021 425.76048419 77.63549805 422.50854492 C77.05443047 421.50445839 77.05443047 421.50445839 76.46162415 420.48008728 C71.7579837 412.36844293 66.87545829 404.366844 61.98144531 396.36914062 C58.81306483 391.18803789 55.66522216 386.00058222 52.6315918 380.73901367 C46.60763765 370.32481791 40.12647519 361.26107239 31.9440918 352.44604492 C31.03231616 351.44100123 30.12211764 350.43452418 29.21362305 349.42651367 C26.80008296 346.75737933 24.3732396 344.1009655 21.9440918 341.44604492 C20.56284185 339.93088565 19.18715488 338.41062135 17.8190918 336.88354492 C17.25963867 336.26350586 16.70018555 335.6434668 16.1237793 335.00463867 C14.9440918 333.44604492 14.9440918 333.44604492 14.9440918 331.44604492 C13.77491211 331.80698242 12.60573242 332.16791992 11.40112305 332.53979492 C9.85305543 333.00890632 8.3048722 333.4776363 6.7565918 333.94604492 C5.98766602 334.18452148 5.21874023 334.42299805 4.42651367 334.66870117 C3.67563477 334.89428711 2.92475586 335.11987305 2.15112305 335.35229492 C1.4651001 335.56176758 0.77907715 335.77124023 0.07226562 335.98706055 C-2.35152283 336.50980028 -4.58361202 336.52159255 -7.0559082 336.44604492 C-7.4118103 337.89575684 -7.4118103 337.89575684 -7.77490234 339.37475586 C-10.02998661 348.50868683 -12.39629287 357.60458814 -14.92822266 366.66577148 C-15.30673574 368.02547549 -15.68170635 369.38617035 -16.05322266 370.74780273 C-21.10639866 389.26655688 -28.60894531 404.53155413 -40.58569336 419.59008789 C-42.75674376 422.33075961 -44.89690958 425.09514022 -47.04003906 427.85766602 C-48.82935689 430.16376594 -50.62185559 432.46735878 -52.4152832 434.77026367 C-55.38382497 438.58253803 -58.35098366 442.39588356 -61.31689453 446.21020508 C-62.47248601 447.69594237 -63.62857015 449.18129661 -64.78515625 450.66625977 C-67.82501599 454.5703137 -70.85529639 458.48133605 -73.87231445 462.40307617 C-74.49944336 463.21583008 -75.12657227 464.02858398 -75.77270508 464.8659668 C-76.96830753 466.41582183 -78.16119425 467.9677772 -79.35083008 469.5222168 C-87.53207869 480.11028588 -87.53207869 480.11028588 -92.7434082 481.25854492 C-99.64748772 480.85319177 -104.78166013 474.52177517 -109.60668945 470.11791992 C-111.88470957 468.17436433 -111.88470957 468.17436433 -114.3684082 468.69604492 C-114.9252832 468.94354492 -115.4821582 469.19104492 -116.0559082 469.44604492 C-116.20286133 470.74928711 -116.20286133 470.74928711 -116.3527832 472.07885742 C-117.59808377 481.67626006 -119.86415982 486.83738971 -127.17700195 493.14916992 C-133.14496273 497.26842767 -139.38924341 496.84721613 -146.3684082 496.88354492 C-147.47120117 496.91641602 -148.57399414 496.94928711 -149.71020508 496.9831543 C-156.81150786 497.02978972 -161.60700187 496.15959575 -167.0559082 491.44604492 C-172.70374604 485.35232515 -173.70117668 480.45505131 -173.5480957 472.23120117 C-172.00809356 460.38785135 -161.42586668 446.8063558 -152.3449707 439.16479492 C-149.93454063 436.30189504 -149.75558762 435.57779731 -149.27856445 432.06323242 C-148.03896539 424.35238547 -143.52730389 418.10181235 -139.4934082 411.57104492 C-138.63667551 410.15966993 -137.78130812 408.74746534 -136.92724609 407.33447266 C-134.74284237 403.7276665 -132.54196441 400.13123044 -130.33666992 396.53717041 C-128.33693342 393.2721603 -126.35230158 389.99804161 -124.3684082 386.72338867 C-122.25590109 383.23688133 -120.14182276 379.75148509 -118.01660156 376.27270508 C-116.7148961 374.14072883 -115.43138617 371.99754808 -114.1652832 369.84423828 C-112.63740038 367.38282613 -111.11307899 365.16829096 -109.3684082 362.87792969 C-99.79293134 349.65837369 -100.82983567 336.03609961 -101.1809082 320.25854492 C-101.49940003 297.66695282 -100.67232057 276.79752781 -92.9309082 255.38354492 C-92.41077148 253.87824219 -92.41077148 253.87824219 -91.88012695 252.3425293 C-90.36995815 248.00007074 -88.78250212 243.70741554 -87.0559082 239.44604492 C-87.7159082 239.77604492 -88.3759082 240.10604492 -89.0559082 240.44604492 C-96.79291866 241.43921835 -100.95950996 238.58263471 -107.21606445 234.27807617 C-108.16476913 233.64624924 -109.11347382 233.0144223 -110.09092712 232.3634491 C-113.11190844 230.34548932 -116.11497109 228.30250056 -119.1184082 226.25854492 C-121.14138473 224.90206734 -123.16546318 223.54723157 -125.19067383 222.1940918 C-130.49796951 218.638702 -135.79274161 215.06649746 -141.0559082 211.44604492 C-141.76302948 210.962435 -142.47015076 210.47882507 -143.19869995 209.9805603 C-147.93639589 206.68506954 -147.93639589 206.68506954 -149.0559082 204.44604492 C-149.823582 196.08014522 -147.36055119 189.18346183 -144.5559082 181.38354492 C-144.32904327 180.7408667 -144.10217834 180.09818848 -143.86843872 179.43603516 C-133.72999779 150.75754475 -118.33400106 126.1022457 -90.20556641 112.18798828 C-85.61069945 110.01516229 -80.9679851 108.32733431 -76.1184082 106.82104492 C-69.90064729 104.85925663 -65.15387301 102.47418135 -60.0559082 98.44604492 C-59.14325195 97.73319336 -58.2305957 97.0203418 -57.2902832 96.28588867 C-54.85982392 94.36120932 -52.45017673 92.41544325 -50.0559082 90.44604492 C-51.90200665 86.57718789 -54.18864626 83.06009016 -56.52075195 79.46948242 C-60.3182673 71.9904064 -61.61763432 64.58844474 -61.5559082 56.25854492 C-61.55018799 55.3487085 -61.54446777 54.43887207 -61.53857422 53.50146484 C-61.20415644 40.70688838 -57.14790172 30.44314647 -49.0559082 20.44604492 C-48.2927832 19.39416992 -47.5296582 18.34229492 -46.7434082 17.25854492 C-33.78892913 3.70153194 -18.02263792 -0.09330857 0 0 Z M-34.78637695 29.83666992 C-43.04033965 39.32659605 -45.10182706 50.2272986 -44.32983398 62.39379883 C-43.43506566 69.09738398 -39.78777432 75.33089032 -34.6809082 79.69604492 C-33.3815332 80.56229492 -33.3815332 80.56229492 -32.0559082 81.44604492 C-32.3446582 80.57979492 -32.6334082 79.71354492 -32.9309082 78.82104492 C-33.3021582 77.70729492 -33.6734082 76.59354492 -34.0559082 75.44604492 C-34.40137695 74.55014648 -34.7468457 73.65424805 -35.1027832 72.73120117 C-37.06509008 65.96767624 -37.80200654 55.57669933 -34.3684082 49.19604492 C-31.2622896 45.50228226 -28.66709798 42.98310818 -24.0559082 41.44604492 C-21.91177598 41.35099864 -19.7646405 41.31617266 -17.6184082 41.32104492 C-16.48532227 41.3184668 -15.35223633 41.31588867 -14.18481445 41.31323242 C-11.60369637 41.42279299 -9.50646416 41.68739615 -7.0559082 42.44604492 C-6.79036133 41.88014648 -6.52481445 41.31424805 -6.2512207 40.73120117 C-5.89801758 39.99772461 -5.54481445 39.26424805 -5.1809082 38.50854492 C-4.83286133 37.77764648 -4.48481445 37.04674805 -4.1262207 36.29370117 C-3.0559082 34.44604492 -3.0559082 34.44604492 -1.0559082 33.44604492 C5.23083482 32.98922864 9.4213232 34.05996017 15.1003418 36.64916992 C16.63248872 37.3063653 18.16505382 37.96258646 19.69799805 38.61791992 C22.07992479 39.65512331 24.45663393 40.70167975 26.82641602 41.76635742 C29.13587844 42.7968137 31.45945631 43.78737319 33.7878418 44.77416992 C34.48703735 45.10104797 35.18623291 45.42792603 35.90661621 45.76470947 C38.96948739 47.03924375 40.91243101 47.7570184 44.15933228 46.77830505 C47.75306222 45.02767502 50.79572955 43.16639421 53.3190918 40.00854492 C54.01131836 39.17516602 54.01131836 39.17516602 54.7175293 38.32495117 C57.38062205 34.24550017 58.22084031 30.45102381 58.5690918 25.63354492 C58.64385742 24.65772461 58.71862305 23.6819043 58.7956543 22.67651367 C58.86913086 21.57243164 58.86913086 21.57243164 58.9440918 20.44604492 C58.25444336 20.51823242 57.56479492 20.59041992 56.85424805 20.66479492 C53.88608706 20.95794662 50.91752642 21.21252911 47.9440918 21.44604492 C47.22737305 21.50276367 46.5106543 21.55948242 45.7722168 21.61791992 C37.04563934 21.95615936 28.31303037 19.54925148 19.80737305 17.80151367 C0.0320712 14.05149054 -19.61990505 15.60168212 -34.78637695 29.83666992 Z M6.9440918 51.44604492 C6.53416992 52.22850586 6.12424805 53.0109668 5.7019043 53.81713867 C5.16307617 54.82905273 4.62424805 55.8409668 4.0690918 56.88354492 C3.53541992 57.89288086 3.00174805 58.9022168 2.4519043 59.94213867 C0.9440918 62.44604492 0.9440918 62.44604492 -1.0559082 63.44604492 C-7.90805486 64.25901147 -7.90805486 64.25901147 -10.99731445 62.07104492 C-12.17404788 60.97309926 -13.31658647 59.83692086 -14.4152832 58.66088867 C-16.0172442 57.17692515 -16.0172442 57.17692515 -18.2590332 57.76245117 C-18.85200195 57.98803711 -19.4449707 58.21362305 -20.0559082 58.44604492 C-20.38822216 64.87078136 -19.87654326 69.17410825 -15.4934082 74.25854492 C-13.68998577 77.0028834 -13.55858181 78.93351102 -13.3684082 82.19604492 C-13.2755957 83.78545898 -13.2755957 83.78545898 -13.1809082 85.40698242 C-13.1190332 86.91131836 -13.1190332 86.91131836 -13.0559082 88.44604492 C-13.0146582 89.22206055 -12.9734082 89.99807617 -12.9309082 90.79760742 C-12.79879076 95.07490978 -13.24648648 98.55578821 -15.0559082 102.44604492 C-16.35568603 103.48928765 -17.68608923 104.49663787 -19.0559082 105.44604492 C-17.06162812 113.10827892 -14.47989048 120.0740865 -10.9309082 127.13354492 C-10.5822168 127.82834961 -10.23352539 128.5231543 -9.87426758 129.23901367 C-8.46822933 131.96981628 -7.24085835 134.26109477 -5.0559082 136.44604492 C-5.04132568 135.61355225 -5.02674316 134.78105957 -5.01171875 133.92333984 C-4.9506219 130.8311484 -4.87646265 127.7396241 -4.79345703 124.64794922 C-4.74389502 122.65313862 -4.70939687 120.65797235 -4.67504883 118.6628418 C-4.63959961 117.40922852 -4.60415039 116.15561523 -4.56762695 114.86401367 C-4.54144287 113.70667725 -4.51525879 112.54934082 -4.48828125 111.35693359 C-4.0559082 108.44604492 -4.0559082 108.44604492 -2.70678711 106.59545898 C-0.2173845 104.86222807 2.29314921 104.55884972 5.2565918 104.00854492 C10.32169548 102.91353914 13.97355521 101.93236973 17.9440918 98.44604492 C18.44166992 98.03354492 18.93924805 97.62104492 19.4519043 97.19604492 C24.95640009 91.88517461 26.43758709 84.49527379 28.40356445 77.35522461 C29.33838273 74.05338226 30.46415112 70.81029018 31.5612793 67.55932617 C32.05854188 64.81423374 31.81476036 63.10254861 30.9440918 60.44604492 C28.82652385 58.93371326 28.82652385 58.93371326 26.10424805 57.98901367 C25.12391602 57.59907227 24.14358398 57.20913086 23.13354492 56.80737305 C22.10165039 56.42000977 21.06975586 56.03264648 20.0065918 55.63354492 C18.97856445 55.2268457 17.95053711 54.82014648 16.89135742 54.40112305 C12.05490714 52.28814428 12.05490714 52.28814428 6.9440918 51.44604492 Z M-50.8684082 113.50854492 C-57.78648945 119.1221348 -65.58828744 121.68544711 -73.9934082 124.32104492 C-86.59071982 128.4763511 -95.87717037 135.1590034 -105.0559082 144.44604492 C-105.72364258 145.1034668 -106.39137695 145.76088867 -107.0793457 146.43823242 C-120.14826325 160.21677445 -125.54448416 179.99320212 -131.0559082 197.44604492 C-113.7309082 208.83104492 -113.7309082 208.83104492 -96.0559082 220.44604492 C-92.89261513 217.28275185 -90.77040133 214.73730813 -88.3840332 211.05932617 C-87.72016602 210.0390332 -87.05629883 209.01874023 -86.37231445 207.9675293 C-85.69040039 206.90856445 -85.00848633 205.84959961 -84.3059082 204.75854492 C-83.60852539 203.68797852 -82.91114258 202.61741211 -82.19262695 201.5144043 C-78.85586627 197.26008959 -78.85586627 197.26008959 -77.0559082 192.44604492 C-77.88735352 192.40866211 -78.71879883 192.3712793 -79.57543945 192.33276367 C-80.66211914 192.26702148 -81.74879883 192.2012793 -82.8684082 192.13354492 C-83.94735352 192.07553711 -85.02629883 192.0175293 -86.13793945 191.95776367 C-89.0559082 191.44604492 -89.0559082 191.44604492 -90.94262695 190.40307617 C-92.88485175 186.98884943 -92.96854321 184.15546464 -92.0559082 180.44604492 C-89.75230709 176.02932134 -86.93111069 172.00316789 -84.0559082 167.94604492 C-83.28337411 166.82742592 -82.51252346 165.70764233 -81.7434082 164.58666992 C-79.86379456 161.86123014 -77.9679253 159.14880314 -76.0559082 156.44604492 C-74.63715055 157.21302288 -73.22099368 157.9848127 -71.8059082 158.75854492 C-71.01700195 159.18780273 -70.2280957 159.61706055 -69.4152832 160.05932617 C-67.15863686 161.38566632 -65.11592223 162.83488716 -63.0559082 164.44604492 C-64.62232571 168.75369308 -66.73926976 172.50775957 -69.0559082 176.44604492 C-67.80874023 176.50211914 -67.80874023 176.50211914 -66.53637695 176.55932617 C-65.44969727 176.62506836 -64.36301758 176.69081055 -63.2434082 176.75854492 C-62.16446289 176.81655273 -61.08551758 176.87456055 -59.97387695 176.93432617 C-56.85305364 177.48161915 -55.8854326 177.92426805 -54.0559082 180.44604492 C-53.3684082 182.63354492 -53.3684082 182.63354492 -53.0559082 184.44604492 C-52.0659082 184.44604492 -51.0759082 184.44604492 -50.0559082 184.44604492 C-48.56668963 182.34428404 -48.56668963 182.34428404 -47.2434082 179.69604492 C-44.02371523 174.03355006 -41.30536026 171.52919561 -35.0559082 169.44604492 C-19.20405522 168.21737525 -19.20405522 168.21737525 -13.0559082 173.44604492 C-11.0216954 175.75439968 -9.18134223 178.10716316 -7.40356445 180.61791992 C-6.95883789 181.22120117 -6.51411133 181.82448242 -6.0559082 182.44604492 C-5.7259082 182.44604492 -5.3959082 182.44604492 -5.0559082 182.44604492 C-3.79445024 172.62106114 -7.16686004 166.26422986 -12.1184082 158.00854492 C-12.77518555 156.87094727 -13.43196289 155.73334961 -14.10864258 154.5612793 C-16.70005973 150.08565933 -19.33968984 145.64019197 -21.99975586 141.20507812 C-25.25102097 135.73579257 -28.12266693 130.4873637 -30.3059082 124.50854492 C-30.66966553 123.51274414 -30.66966553 123.51274414 -31.04077148 122.49682617 C-33.25203143 116.26306579 -34.78851878 109.93863634 -36.0559082 103.44604492 C-40.80474877 103.44604492 -47.45082711 110.59419988 -50.8684082 113.50854492 Z M17.9440918 117.44604492 C14.4790918 118.93104492 14.4790918 118.93104492 10.9440918 120.44604492 C10.94044617 121.38326385 10.93680054 122.32048279 10.93304443 123.28610229 C10.89580546 132.1986784 10.83772469 141.11091818 10.76018906 150.02323723 C10.72098873 154.60315073 10.68866782 159.18287984 10.6730957 163.76293945 C10.65774554 168.19822455 10.62298483 172.63300172 10.57578278 177.06805801 C10.56115535 178.74453392 10.55306175 180.42108242 10.55220795 182.09762192 C10.53680459 197.20381233 8.27512876 211.52189598 2.8190918 225.69604492 C2.31614425 227.05529291 1.81353334 228.41466552 1.3112793 229.77416992 C0.86010742 230.98588867 0.40893555 232.19760742 -0.0559082 233.44604492 C-0.7159082 235.42604492 -1.3759082 237.40604492 -2.0559082 239.44604492 C5.5340918 239.44604492 13.1240918 239.44604492 20.9440918 239.44604492 C21.41459961 237.53178711 21.88510742 235.6175293 22.36987305 233.64526367 C22.99822877 231.14121921 23.62716518 228.63732041 24.2565918 226.13354492 C24.56532227 224.8709082 24.87405273 223.60827148 25.19213867 222.30737305 C25.49829102 221.09887695 25.80444336 219.89038086 26.11987305 218.64526367 C26.39742432 217.52982178 26.67497559 216.41437988 26.9609375 215.26513672 C27.94198423 212.45208814 28.52187987 211.13778875 30.9440918 209.44604492 C36.4392841 208.835468 36.4392841 208.835468 38.9440918 209.44604492 C43.4285483 213.03721934 46.19655716 218.24691064 49.2331543 223.0456543 C52.08810096 227.45505811 54.31968291 230.84958836 59.6940918 232.07104492 C63.21096332 231.39472347 63.9680539 230.78358868 66.51049805 228.43432617 C69.58203155 225.64022606 72.72864268 223.0232022 75.98706055 220.44995117 C85.44161736 212.9009088 85.44161736 212.9009088 90.54663086 202.38256836 C90.60647917 196.12938556 89.3482307 190.22154733 87.6965332 184.21508789 C86.55233284 180.00434147 85.75678341 175.73098634 84.9440918 171.44604492 C84.47890137 171.84533203 84.01371094 172.24461914 83.53442383 172.65600586 C82.33911928 173.67934192 81.1391315 174.69721626 79.9362793 175.71166992 C78.65489394 176.82722894 77.40593772 177.98178575 76.2019043 179.18041992 C73.18593468 182.0991002 71.0493111 183.84845948 66.7565918 184.07104492 C62.40808337 183.35817469 61.70925333 182.70191071 58.9440918 179.44604492 C57.82066228 177.63099879 56.76521891 175.77288387 55.7644043 173.88745117 C55.17216064 172.78908936 54.57991699 171.69072754 53.96972656 170.55908203 C53.50531662 169.69015823 53.50531662 169.69015823 53.03152466 168.80368042 C43.31300051 150.67663137 32.73604298 131.94732458 17.9440918 117.44604492 Z M121.8972168 123.30151367 C118.68888779 128.46692337 117.78312667 134.27351285 116.49682617 140.16674805 C114.5936546 147.97668183 111.29453974 152.81372892 105.13378906 157.95751953 C102.87537202 159.90091635 101.07828744 161.46085255 100.66381836 164.50366211 C100.80048733 166.83310887 101.13025639 169.0297804 101.5690918 171.32104492 C101.69155273 172.10479492 101.81401367 172.88854492 101.94018555 173.69604492 C102.24483901 175.6177052 102.59041841 177.53279974 102.9440918 179.44604492 C106.57904248 176.70869152 109.42245375 173.87537526 112.2565918 170.32104492 C113.03647461 169.35682617 113.81635742 168.39260742 114.61987305 167.39916992 C116.10327631 165.51437518 117.56193333 163.60965523 118.98706055 161.68041992 C122.87242347 156.49993602 126.16389435 153.39559512 131.95581055 150.50463867 C134.9331526 148.91945263 136.3810505 147.43621088 137.9440918 144.44604492 C139.28917512 137.45161162 137.01203595 130.70506143 133.9440918 124.44604492 C131.73086488 121.66127039 131.20976492 121.48468829 127.5065918 120.94604492 C123.93233282 121.10736133 123.93233282 121.10736133 121.8972168 123.30151367 Z M-33.1809082 187.44604492 C-35.07394592 190.47490527 -36.6488273 193.52634641 -38.1262207 196.77416992 C-39.0559082 198.44604492 -39.0559082 198.44604492 -41.0559082 199.44604492 C-42.53654624 199.4217781 -44.01650131 199.34292163 -45.4934082 199.23510742 C-55.25696441 198.50862022 -55.25696441 198.50862022 -64.02319336 201.94506836 C-67.02645602 205.35369575 -72.0559082 211.72534289 -72.0559082 216.44604492 C-60.4584194 216.86024095 -49.27162784 215.62434854 -38.3684082 211.63354492 C-37.7096167 211.39748535 -37.0508252 211.16142578 -36.37207031 210.91821289 C-29.79376828 208.33718724 -25.28650729 203.66793946 -22.0559082 197.44604492 C-21.58240698 194.37880924 -21.41201547 191.4914835 -22.0559082 188.44604492 C-24.02296121 185.90145601 -24.73770116 185.50020782 -27.9934082 184.94604492 C-31.15930538 185.16995963 -31.15930538 185.16995963 -33.1809082 187.44604492 Z M-11.0559082 211.44604492 C-11.5837793 212.17307617 -11.5837793 212.17307617 -12.12231445 212.91479492 C-20.93326377 224.87744151 -36.98525563 229.28628452 -51.0559082 231.44604492 C-55.38959087 231.94608523 -59.69643374 232.29441103 -64.0559082 232.44604492 C-61.10408643 235.39786669 -57.67281216 235.17538005 -53.6887207 235.58666992 C-52.85758759 235.67736755 -52.02645447 235.76806519 -51.1701355 235.86151123 C-49.41036704 236.05073808 -47.65009921 236.23536847 -45.8894043 236.41577148 C-43.19691761 236.69438828 -40.507517 236.99506254 -37.81762695 237.29760742 C-36.10813366 237.47864205 -34.39850167 237.65837267 -32.6887207 237.83666992 C-31.88443634 237.9282135 -31.08015198 238.01975708 -30.25149536 238.11407471 C-24.79451554 238.73844803 -24.79451554 238.73844803 -20.0559082 236.44604492 C-18.83389702 234.79421287 -18.83389702 234.79421287 -17.9855957 232.81323242 C-17.64657227 232.0887793 -17.30754883 231.36432617 -16.95825195 230.61791992 C-16.61922852 229.85995117 -16.28020508 229.10198242 -15.9309082 228.32104492 C-15.41077148 227.21889648 -15.41077148 227.21889648 -14.88012695 226.09448242 C-12.66794224 221.28022604 -11.19386351 216.61963554 -10.0559082 211.44604492 C-10.3859082 211.44604492 -10.7159082 211.44604492 -11.0559082 211.44604492 Z M-86.0559082 236.44604492 C-85.0559082 238.44604492 -85.0559082 238.44604492 -85.0559082 238.44604492 Z M-72.0559082 249.44604492 C-75.63671348 258.00187471 -78.90684404 266.36548311 -80.9309082 275.44604492 C-81.14231445 276.32131836 -81.3537207 277.1965918 -81.5715332 278.09838867 C-82.70696245 283.0013786 -83.2882798 287.41588332 -83.0559082 292.44604492 C-79.10081325 294.45249741 -75.14131799 296.45010628 -71.1809082 298.44604492 C-69.48901367 299.30456055 -69.48901367 299.30456055 -67.76293945 300.18041992 C-66.14838867 300.9925293 -66.14838867 300.9925293 -64.5012207 301.82104492 C-63.50622559 302.3237793 -62.51123047 302.82651367 -61.48608398 303.34448242 C-59.1970057 304.58366204 -59.1970057 304.58366204 -57.0559082 304.44604492 C-56.75040039 303.24592773 -56.44489258 302.04581055 -56.13012695 300.80932617 C-51.55872113 283.82662237 -44.02139083 268.90512541 -34.0559082 254.44604492 C-37.20694734 252.87052535 -40.66077003 252.84053774 -44.1262207 252.47338867 C-44.92244843 252.38601944 -45.71867615 252.29865021 -46.53903198 252.20863342 C-49.08594651 251.93000172 -51.63340263 251.65671465 -54.1809082 251.38354492 C-55.9062069 251.1957452 -57.63146787 251.00759854 -59.35668945 250.8190918 C-63.58933486 250.35738029 -67.82247369 249.90046177 -72.0559082 249.44604492 Z M-20.8059082 261.88354492 C-22.04429748 263.96760277 -23.09684287 266.03686318 -24.07006836 268.25708008 C-25.07366489 270.48547199 -26.23944078 272.48189229 -27.53637695 274.55151367 C-34.87333391 286.39049857 -39.30937417 298.80269291 -42.0559082 312.44604492 C-36.1770258 315.60233015 -30.66443066 318.33196451 -24.0559082 319.44604492 C-23.32114258 319.58010742 -22.58637695 319.71416992 -21.8293457 319.85229492 C-8.63602974 321.74319363 5.14304013 318.5734273 15.8894043 310.67260742 C22.95937224 305.04042375 29.16799548 298.43254752 35.5065918 292.00854492 C36.81406446 290.69102101 38.12200359 289.37395983 39.43041992 288.05737305 C42.60704656 284.85890615 45.77729634 281.65424473 48.9440918 278.44604492 C45.24950903 274.73700343 41.51980914 271.15312479 37.54394531 267.74682617 C34.9440918 265.44604492 34.9440918 265.44604492 32.70996094 263.13256836 C24.42495544 255.15955751 16.48333001 254.58869655 5.5065918 254.44604492 C4.6743811 254.42599396 3.84217041 254.40594299 2.98474121 254.38528442 C-10.60794274 253.95219907 -10.60794274 253.95219907 -20.8059082 261.88354492 Z M59.1184082 292.04467773 C57.92234801 293.24105628 56.73181959 294.44298026 55.5456543 295.64916992 C54.91428558 296.28336853 54.28291687 296.91756714 53.63241577 297.57098389 C51.60658303 299.60804086 49.58778459 301.65191449 47.5690918 303.69604492 C46.21538438 305.0597822 44.8612232 306.42306921 43.5065918 307.78588867 C41.01108286 310.29774937 38.51821982 312.81217158 36.02856445 315.32983398 C33.67486978 317.70977077 31.31424126 320.08247311 28.9440918 322.44604492 C35.30657272 329.93453191 41.68959213 337.37207719 48.3972168 344.55541992 C55.16781822 352.23984485 60.77114222 360.0856617 65.84234619 368.99563599 C67.65706297 372.18314066 69.49964198 375.35452972 71.33862305 378.52807617 C71.71569397 379.1803569 72.09276489 379.83263763 72.48126221 380.50468445 C77.23966411 388.71737064 82.19548606 396.80935039 87.14697266 404.90649414 C91.50208522 412.0371171 95.76277881 419.21216187 99.9440918 426.44604492 C105.80079956 421.53662463 111.46754842 416.43436045 116.98144531 411.14331055 C118.00318066 410.17374962 119.03630368 409.21605774 120.08007812 408.27026367 C121.60741758 406.88311941 123.09153969 405.46002488 124.57299805 404.02416992 C125.46059814 403.19304687 126.34819824 402.36192383 127.26269531 401.50561523 C129.85658082 396.78562494 128.38031236 393.44496554 126.9440918 388.44604492 C126.66552841 387.37615326 126.38696503 386.3062616 126.09996033 385.20394897 C124.19354934 377.9535656 122.1155024 370.75026101 120.02151012 363.55212498 C118.96594322 359.92243449 117.92835209 356.2896698 116.93261719 352.64306641 C111.87422721 331.63391732 111.87422721 331.63391732 97.91796875 316.12939453 C96.93658936 315.57388916 95.95520996 315.01838379 94.9440918 314.44604492 C93.63263617 313.44008096 92.33663324 312.41305787 91.0690918 311.35229492 C90.0378418 310.55823242 89.0065918 309.76416992 87.9440918 308.94604492 C82.57969366 304.78471991 77.35737171 300.4831399 72.20581055 296.0612793 C66.00615173 289.52505454 66.00615173 289.52505454 59.1184082 292.04467773 Z M-85.0559082 310.44604492 C-84.99717529 311.68765381 -84.93844238 312.9292627 -84.87792969 314.20849609 C-83.78272209 340.82759039 -84.56345486 360.41293856 -100.63793945 382.08081055 C-104.46887582 387.30544434 -107.67763086 392.92325761 -110.97149658 398.49456787 C-112.71301808 401.42781663 -114.49032082 404.33854103 -116.2668457 407.25073242 C-117.23895996 408.84546387 -117.23895996 408.84546387 -118.23071289 410.47241211 C-119.85723887 413.12237017 -121.50156137 415.75970323 -123.1574707 418.39135742 C-123.59446289 419.09405762 -124.03145508 419.79675781 -124.48168945 420.52075195 C-125.57277025 422.2724342 -126.67691645 424.01596127 -127.7824707 425.75854492 C-129.26046535 428.2575393 -129.26046535 428.2575393 -128.80883789 430.4453125 C-127.51215245 433.89094711 -124.45980716 435.86290582 -121.6809082 438.13354492 C-121.05112061 438.66028809 -120.42133301 439.18703125 -119.77246094 439.72973633 C-117.87517757 441.31212486 -115.96746384 442.88094296 -114.0559082 444.44604492 C-113.51949707 444.8873877 -112.98308594 445.32873047 -112.43041992 445.78344727 C-110.11652883 447.68701536 -107.79602822 449.58170267 -105.46606445 451.46557617 C-103.27822278 453.26336504 -101.16487874 455.11971745 -99.0559082 457.00854492 C-96.31208646 459.76134123 -96.31208646 459.76134123 -93.0559082 459.44604492 C-91.11479748 457.13433089 -89.36193202 454.83833892 -87.6184082 452.38354492 C-86.54110749 450.90543031 -85.46162437 449.4289042 -84.38012695 447.95385742 C-83.8288916 447.20007813 -83.27765625 446.44629883 -82.7097168 445.66967773 C-80.20134265 442.29703651 -77.57487188 439.0252994 -74.9309082 435.75854492 C-70.00525751 429.64988115 -65.1869833 423.47345418 -60.42895508 417.23266602 C-58.89564204 415.23750513 -57.34364409 413.25766414 -55.7902832 411.27807617 C-45.19046821 397.7175291 -37.91322695 385.00232626 -33.0559082 368.44604492 C-32.70786133 367.26413574 -32.35981445 366.08222656 -32.0012207 364.86450195 C-31.04418768 361.59598008 -30.10516364 358.32265507 -29.17770386 355.04562378 C-28.80631855 353.73445755 -28.43241569 352.42400167 -28.05593872 351.11428833 C-27.52602369 349.26166387 -27.01138312 347.40469135 -26.49731445 345.54760742 C-26.19510986 344.46817871 -25.89290527 343.38875 -25.58154297 342.27661133 C-25.06996393 339.52173562 -25.10892918 338.04367459 -26.0559082 335.44604492 C-26.88566162 335.28201172 -27.71541504 335.11797852 -28.5703125 334.94897461 C-40.95375307 332.107886 -51.64377389 326.51679619 -62.8684082 320.69604492 C-65.74086485 319.22098012 -68.61534221 317.75001297 -71.49186707 316.28289795 C-73.26752734 315.37576661 -75.04051857 314.46338744 -76.8105011 313.54522705 C-77.60280624 313.13770203 -78.39511139 312.730177 -79.21142578 312.31030273 C-79.90786697 311.94930481 -80.60430817 311.58830688 -81.32185364 311.21636963 C-83.04429299 310.31071916 -83.04429299 310.31071916 -85.0559082 310.44604492 Z M125.9440918 425.44604492 C117.03660729 432.7330119 117.03660729 432.7330119 113.5065918 443.38354492 C113.42666992 444.55272461 113.34674805 445.7219043 113.2644043 446.92651367 C112.71213422 452.99474947 110.67054896 458.99313059 107.9440918 464.44604492 C107.90409979 466.44564504 107.90062381 468.44651734 107.9440918 470.44604492 C111.46206807 472.61534946 114.27527805 472.6889473 118.36499023 472.6730957 C119.66603699 472.67294464 120.96708374 472.67279358 122.30755615 472.67263794 C123.72286126 472.66242538 125.1381648 472.65199341 126.5534668 472.64135742 C128.00506394 472.63762563 129.4566636 472.63477944 130.90826416 472.63278198 C134.72234087 472.62515857 138.53626442 472.60552128 142.35028076 472.58337402 C146.24481128 472.5628877 150.13936663 472.55377432 154.03393555 472.54370117 C161.670724 472.52227407 169.30738641 472.48815384 176.9440918 472.44604492 C176.9440918 471.12604492 176.9440918 469.80604492 176.9440918 468.44604492 C176.12723152 468.06592758 176.12723152 468.06592758 175.29386902 467.6781311 C169.61212657 465.0257996 163.95521594 462.32525201 158.31005859 459.59594727 C156.20239238 458.58477258 154.08877445 457.58590501 151.96923828 456.59985352 C148.91688102 455.17718712 145.88892194 453.71109989 142.86206055 452.23510742 C141.91509811 451.80549713 140.96813568 451.37588684 139.99247742 450.93325806 C133.60061164 447.74198479 133.60061164 447.74198479 131.68864441 443.96784973 C130.91997539 441.45774578 130.36477897 439.03495675 129.9440918 436.44604492 C129.72624023 435.41350586 129.50838867 434.3809668 129.28393555 433.31713867 C129.01186521 431.67150937 128.74106618 430.02566947 128.47143555 428.37963867 C128.29741211 427.74155273 128.12338867 427.1034668 127.9440918 426.44604492 C127.2840918 426.11604492 126.6240918 425.78604492 125.9440918 425.44604492 Z M-141.2434082 452.32104492 C-145.80756281 456.98074544 -149.54886142 461.95833442 -153.0559082 467.44604492 C-153.88928711 468.72801758 -153.88928711 468.72801758 -154.73950195 470.03588867 C-156.36040387 473.00353403 -156.28828429 475.11532102 -156.0559082 478.44604492 C-151.26036703 481.27158679 -146.46960217 480.94745797 -141.0559082 480.44604492 C-136.54009874 478.94505197 -136.54009874 478.94505197 -133.92700195 475.21166992 C-132.67884196 471.24890187 -132.70953114 467.41527175 -132.5949707 463.28588867 C-131.94099252 459.84065576 -130.71026699 458.65096048 -128.0559082 456.44604492 C-129.54632593 452.65225434 -131.74653332 450.76260734 -135.0559082 448.44604492 C-138.11400585 448.44604492 -139.11205668 450.20069865 -141.2434082 452.32104492 Z " fill="#000000" transform="translate(245.055908203125,7.553955078125)"/>
</svg>
